<?xml version="1.0" encoding="utf-8"?>
<!-- Generator: Adobe Illustrator 15.0.2, SVG Export Plug-In . SVG Version: 6.00 Build 0)  -->
<!DOCTYPE svg PUBLIC "-//W3C//DTD SVG 1.1//EN" "http://www.w3.org/Graphics/SVG/1.1/DTD/svg11.dtd">
<svg version="1.1"
	 id="svg3607" sodipodi:docname="Logo_Final.svg" inkscape:version="0.48.3.1 r9886" xmlns:sodipodi="http://sodipodi.sourceforge.net/DTD/sodipodi-0.dtd" xmlns:inkscape="http://www.inkscape.org/namespaces/inkscape" xmlns:svg="http://www.w3.org/2000/svg" xmlns:rdf="http://www.w3.org/1999/02/22-rdf-syntax-ns#" xmlns:cc="http://creativecommons.org/ns#" xmlns:dc="http://purl.org/dc/elements/1.1/"
	 xmlns="http://www.w3.org/2000/svg" xmlns:xlink="http://www.w3.org/1999/xlink" x="0px" y="0px" width="1052.361px"
	 height="744.094px" viewBox="0 0 1052.361 744.094" enable-background="new 0 0 1052.361 744.094" xml:space="preserve">
<sodipodi:namedview  inkscape:guide-bbox="true" inkscape:window-width="1855" inkscape:window-height="1056" inkscape:window-x="65" pagecolor="#ffffff" id="base" borderopacity="1.0" inkscape:pageopacity="0.0" inkscape:pageshadow="2" inkscape:zoom="1.2216191" inkscape:window-maximized="1" inkscape:window-y="24" inkscape:cx="526.18109" showgrid="false" bordercolor="#666666" showguides="true" inkscape:current-layer="layer1" inkscape:cy="372.04724" inkscape:document-units="px">
	<sodipodi:guide  position="422.39027,482.14703" orientation="0,1" id="guide4003"></sodipodi:guide>
	<sodipodi:guide  position="365.24019,321.53871" orientation="0,1" id="guide4005"></sodipodi:guide>
	<sodipodi:guide  position="270.8913,321.53871" orientation="1,0" id="guide4898"></sodipodi:guide>
	<sodipodi:guide  position="770.39155,313.00674" orientation="1,0" id="guide4900"></sodipodi:guide>
</sodipodi:namedview>
<path id="path454-8" inkscape:connector-curvature="0" fill="#C9CACB" d="M602.372,398.491c31.014,0,56.24-25.229,56.24-56.239
	c0-31.012-25.227-56.241-56.24-56.241c-30.944,0-56.135,25.125-56.241,56.046v80.499H522.07v-80.44
	c0.074-44.217,36.067-80.167,80.303-80.167c44.281,0,80.306,36.024,80.306,80.304s-36.024,80.304-80.306,80.304"/>
<path id="path450-9" inkscape:connector-curvature="0" fill="#66CCFF" d="M761.181,313.753l29.03,29.032l-29.03,29.033V313.753z"/>
<path id="path458-0" inkscape:connector-curvature="0" fill="#C9CACB" d="M770.432,286.011c-31.011,0-56.24,25.229-56.24,56.241
	c0,31.01,25.229,56.239,56.24,56.239s56.241-25.229,56.241-56.239C826.673,311.239,801.443,286.011,770.432,286.011
	 M770.432,422.555c-44.279,0-80.303-36.023-80.303-80.304s36.023-80.304,80.303-80.304c44.282,0,80.303,36.024,80.303,80.304
	S814.713,422.555,770.432,422.555"/>
<g id="g476" transform="matrix(1.25,0,0,-1.25,450.52579,650.46423)">
	<path id="path478" inkscape:connector-curvature="0" fill="#66CCFF" d="M0,246.614l48.047,48.049c3.713,3.711,3.713,9.727,0,13.438
		c-3.709,3.71-9.727,3.71-13.438,0l-47.793-47.795l-47.67,47.67c-3.71,3.711-9.728,3.711-13.439,0s-3.711-9.727,0-13.438
		l48.051-48.05l-48.051-48.048c-3.711-3.712-3.711-9.728,0-13.439c1.855-1.855,4.289-2.783,6.721-2.783
		c2.43,0,4.863,0.927,6.718,2.783l47.795,47.795l47.668-47.67c1.856-1.856,4.287-2.783,6.72-2.783s4.865,0.927,6.719,2.783
		c3.713,3.711,3.713,9.727,0,13.438L0,246.614z"/>
</g>
<g id="g4894" transform="translate(186.63756,-0.00672758)">
	<path id="path458-0-6" inkscape:connector-curvature="0" fill="#C9CACB" d="M85.938,261.937c-44.279,0-80.281,36.032-80.281,80.312
		c0,44.218,35.9,80.21,80.094,80.312v-24.062c-30.925-0.102-56.031-25.303-56.031-56.25c0-31.012,25.207-56.25,56.219-56.25
		c31.011,0,56.249,25.238,56.249,56.25c0,4.134-0.462,8.149-1.312,12.031h24.469c0.592-3.924,0.906-7.945,0.906-12.031
		C166.249,297.97,130.219,261.937,85.938,261.937z"/>
	<path id="path454-8-4" inkscape:connector-curvature="0" sodipodi:nodetypes="cccc" fill="#C9CACB" d="M85.673,330.221h79.066
		l-0.818,24.062H85.732"/>
</g>
<text transform="matrix(1 0 0 1 269.3069 459.5532)" fill="#66CCFF" font-family="'ArialMT'" font-size="37.6262" letter-spacing="8">electronic portfolio</text>
</svg>
